<?xml version="1.0" standalone="no"?>
<svg xmlns:xlink="http://www.w3.org/1999/xlink" id="wave" style="transform:rotate(0deg); transition: 0.3s" viewBox="0 0 1440 400" version="1.1" xmlns="http://www.w3.org/2000/svg"><defs><linearGradient id="sw-gradient-0" x1="0" x2="0" y1="1" y2="0"><stop stop-color="rgba(237, 239, 240, 1)" offset="0%"/><stop stop-color="rgba(237, 239, 240, 1)" offset="100%"/></linearGradient></defs><path style="transform:translate(0, 0px); opacity:1" fill="url(#sw-gradient-0)" d="M0,80L48,86.7C96,93,192,107,288,153.3C384,200,480,280,576,286.7C672,293,768,227,864,180C960,133,1056,107,1152,120C1248,133,1344,187,1440,193.3C1536,200,1632,160,1728,180C1824,200,1920,280,2016,286.7C2112,293,2208,227,2304,213.3C2400,200,2496,240,2592,240C2688,240,2784,200,2880,186.7C2976,173,3072,187,3168,206.7C3264,227,3360,253,3456,220C3552,187,3648,93,3744,86.7C3840,80,3936,160,4032,160C4128,160,4224,80,4320,80C4416,80,4512,160,4608,220C4704,280,4800,320,4896,306.7C4992,293,5088,227,5184,213.3C5280,200,5376,240,5472,260C5568,280,5664,280,5760,280C5856,280,5952,280,6048,266.7C6144,253,6240,227,6336,186.7C6432,147,6528,93,6624,86.7C6720,80,6816,120,6864,140L6912,160L6912,400L6864,400C6816,400,6720,400,6624,400C6528,400,6432,400,6336,400C6240,400,6144,400,6048,400C5952,400,5856,400,5760,400C5664,400,5568,400,5472,400C5376,400,5280,400,5184,400C5088,400,4992,400,4896,400C4800,400,4704,400,4608,400C4512,400,4416,400,4320,400C4224,400,4128,400,4032,400C3936,400,3840,400,3744,400C3648,400,3552,400,3456,400C3360,400,3264,400,3168,400C3072,400,2976,400,2880,400C2784,400,2688,400,2592,400C2496,400,2400,400,2304,400C2208,400,2112,400,2016,400C1920,400,1824,400,1728,400C1632,400,1536,400,1440,400C1344,400,1248,400,1152,400C1056,400,960,400,864,400C768,400,672,400,576,400C480,400,384,400,288,400C192,400,96,400,48,400L0,400Z"/></svg>